<?xml version="1.0" encoding="utf-8"?>
<!-- Generator: Adobe Illustrator 23.0.5, SVG Export Plug-In . SVG Version: 6.00 Build 0)  -->
<svg version="1.1" id="Layer_1" xmlns="http://www.w3.org/2000/svg" xmlns:xlink="http://www.w3.org/1999/xlink" x="0px" y="0px"
	 viewBox="0 0 800 800" style="enable-background:new 0 0 800 800;" xml:space="preserve">
<style type="text/css">
	.st0{fill-rule:evenodd;clip-rule:evenodd;fill:#FFFFFF;}
</style>
<title>log-in</title>
<g id="Page-1">
	<g id="icon" transform="translate(42.666667, 42.666667)">
		<path id="Combined-Shape" class="st0" d="M657.3,24v666.7H290.7V557.3h66.7V624h233.3V90.7H357.3v66.7h-66.7V24H657.3z
			 M140.7,240.7c52.9,0,97.5,35.1,111.8,83.3l271.5,0v66.7h-33.3v66.7h-100v-66.7l-138.2,0c-14.3,48.2-59,83.3-111.8,83.3
			C76.2,474,24,421.8,24,357.3S76.2,240.7,140.7,240.7z M140.7,307.3c-27.6,0-50,22.4-50,50c0,27.6,22.4,50,50,50s50-22.4,50-50
			C190.7,329.7,168.3,307.3,140.7,307.3z"/>
	</g>
</g>
</svg>
